<svg xmlns="http://www.w3.org/2000/svg" viewBox="0 0 300 318.57"><defs><style>.cls-1{isolation:isolate;}.cls-2{fill:#f9b104;}.cls-3{fill:#f9bb8d;}.cls-4{fill:#259dab;}.cls-5{fill:#c5d2db;}.cls-12,.cls-5,.cls-7,.cls-8{mix-blend-mode:multiply;}.cls-6{fill:#d99870;}.cls-7{fill:#e5d7d8;}.cls-8{fill:#f0e8e4;}.cls-9{fill:#3d2216;}.cls-10{opacity:0.5;mix-blend-mode:soft-light;}.cls-11{fill:#fff;}.cls-13{fill:#afaaa8;}</style></defs><g class="cls-1"><g id="Layer_2" data-name="Layer 2"><g id="Capa_1" data-name="Capa 1"><ellipse class="cls-2" cx="150" cy="301.13" rx="150" ry="17.45"/><path class="cls-3" d="M97.75,105.21c-1.24-6.28-7.22-12.12-15.42-10.33s-8.22,9.44-7,15.72c.07.33,4.1,17.3,6.47,20.87s5.8,10.37,11.57,8.43c3.81-1.28,6-8.06,7-13S97.75,105.21,97.75,105.21Z"/><path class="cls-3" d="M202.08,105c1.25-6.28,7.22-12.12,15.42-10.32s9,9.65,7.76,15.93c-.07.33-4.43,16-6.47,20.88-1.68,4-6.26,11-12.21,8.55-3.72-1.54-6.2-8.41-7.1-13.31S202.08,105,202.08,105Z"/><path class="cls-4" d="M22.44,297.21H276.72s-5-62.41-13.36-71.76-71.91-30.27-71.91-30.27l-83.08-.24s-66.88,19.58-71.45,30.51S22.44,297.21,22.44,297.21Z"/><path class="cls-5" d="M141.58,195l-33.21-.1s-66.88,19.58-71.45,30.51-14.48,71.76-14.48,71.76H56s9.91-60.84,14.48-71.76C74.85,214.94,136.77,196.46,141.58,195Z"/><path class="cls-6" d="M117.36,190.86S138.3,208,150.05,208s32.69-17.17,32.69-17.17A23.19,23.19,0,0,1,180,167c6.11-13.55-68.12-12.44-59.49,0S117.36,190.86,117.36,190.86Z"/><path class="cls-7" d="M139.12,204.94a26.7,26.7,0,0,1,9.73-12.27c5-3.66,8-.37,29.27-12.57A22.83,22.83,0,0,1,180,167c6.11-13.55-68.12-12.44-59.49,0s-3.13,23.87-3.13,23.87S128.52,200,139.12,204.94Z"/><path class="cls-5" d="M113.23,189.64l-4.86,5.3s14.47,35.75,27,40.28c3.84,1.38,11.84-16.33,14.63-16.33,1.34,0,12.14,18.79,13.78,18.42,12.87-2.94,27.63-42.13,27.63-42.13L186,191.06,150,213.7Z"/><path class="cls-3" d="M210.08,58c0-27.24-16.87-54.57-61.55-54.57s-60.9,29.91-60.9,57.15c0,1.43-.14,75.5,8.54,92.51s32.55,34.36,53.88,34.44c23.32.09,44.28-14.89,54.07-34.44S210.08,58,210.08,58Z"/><path class="cls-8" d="M104.82,64.11,106,65c1.22,1.15-4.91,14.83-3.13,14.9,8.85,1.86,19.47-17.31,28.12-14.63,15.22,4.74,43.86,43.11,72,42.36,7.38-7.12,7.13-49.6,7.13-49.6,0-27.24-16.87-54.57-61.55-54.57-37,0-54.46,20.54-59.36,43.07C96.08,49.43,101.86,55.14,104.82,64.11Z"/><path class="cls-8" d="M167.54,168c-21.33-.08-45.2-17.44-53.88-34.45s-8.53-91.07-8.53-92.5a62.11,62.11,0,0,1,6.45-28c-17,11-24,29.78-24,47.48,0,1.43-.14,75.5,8.54,92.51s32.55,34.36,53.88,34.44c22,.09,42-13.31,52.36-31.29A58.6,58.6,0,0,1,167.54,168Z"/><path class="cls-8" d="M202.11,156.67c.09-.16.21-.3.3-.45-.5.36-1,.69-1.54,1C201.29,157.08,201.69,156.86,202.11,156.67Z"/><path class="cls-8" d="M160.17,181.76c-21.32-.08-45.2-17.43-53.88-34.44s-8.53-91.08-8.53-92.51c0-12.21,3.39-24.86,11-35.19a57.67,57.67,0,0,1,2.8-6.54c-17,11-24,29.78-24,47.48,0,1.43-.14,75.5,8.54,92.51s32.55,34.36,53.88,34.44a58,58,0,0,0,33.07-10.65A56.34,56.34,0,0,1,160.17,181.76Z"/><path class="cls-9" d="M220.08,51.48c-5.5-30-30-51.73-70-51.48S83.88,24.72,78.63,52.48c-2.24,11.89-4,34.49-3.06,48,6.76-5.56,9.55-6.28,12.82-5C90.63,120,96,119.59,96,119.59S96.45,103,97.54,92s19.08-13,28.08-32c28.49-1.24,46.48,35.24,77.71,37.24-3.08,18.06,3.76,25.24,3.76,25.24s.72-14.91,3.24-22a7.55,7.55,0,0,1,12-3.49C223.87,85.75,223.12,68.05,220.08,51.48Z"/><g class="cls-10"><path class="cls-11" d="M220.08,51.48c-5.5-30-30-51.73-70-51.48C115,.22,90.51,19.1,81.5,42.49,92.73,23.26,115.25,8.81,145.85,8.62c40.05-.24,64.54,21.5,70,51.49a180,180,0,0,1,3,35.33A7.79,7.79,0,0,1,222.32,97C223.87,85.75,223.12,68.05,220.08,51.48Z"/></g><g class="cls-12"><path class="cls-13" d="M125.62,45.72c-9,19-38,36.92-50.05,40.47,0-.62,0-1.34-.08-2-.22,5.94-.23,11.63.08,16.24,6.76-5.56,9.55-6.28,12.82-5C90.63,120,96,119.59,96,119.59S96.45,103,97.54,92s19.08-13,28.08-32C154,58.73,172,94.88,203,97.16,180.09,89.23,154.11,44.48,125.62,45.72Z"/></g><path class="cls-11" d="M113.23,181.15l-4.86,13.79s14.47,27.25,27,31.78c3.84,1.39,11.84-16.33,14.63-16.33,1.34,0,12.14,18.8,13.78,18.42,12.87-2.93,27.63-33.63,27.63-33.63L186,182.56,150,205.2Z"/></g></g></g></svg>